<svg xmlns="http://www.w3.org/2000/svg" width="512" height="512" viewBox="0 0 512 512"><path fill="#008cdb" d="M46 354.33V158.121c.438-1.124 1.111-2.211 1.275-3.372 3.228-22.489 19.396-40.388 41.368-45.773 2.628-.644 5.209-1.489 7.81-2.244h319.535c.936.439 1.833 1.112 2.814 1.276 27.874 4.708 47.184 27.53 47.192 55.875.008 60.576.012 121.151-.033 181.723-.004 3.716-.296 7.453-.771 11.136-3.65 28.166-26.967 48.521-55.51 48.521-102.309.008-204.618.008-306.923 0-26.606 0-48.558-17.432-54.751-43.427-.599-2.519-1.333-5.004-2.006-7.506zm213.44-215.282c1.05 6.292 2.724 11.759 2.756 17.239.238 36.114.41 72.232.045 108.346-.365 36.008 1.714 72.068-1.497 108.831 4.298 0 9.224-.188 14.125.062 3.806.193 6.361-1.472 7.912-4.606 1.226-2.473 2.383-5.156 2.728-7.854.877-6.911.685-13.995 1.989-20.807 3.855-20.139 15.914-34.059 34.941-40.95 19.507-7.067 38.107-4.064 54.296 9.393 13.084 10.881 19.203 25.089 19.396 42.201.066 5.898 1.727 11.874 3.4 17.6.574 1.96 3.265 4.434 5.209 4.651 5.635.624 11.386.221 16.689.221-.456-9.942-.668-19.351-1.366-28.727-1.198-16.012-5.66-30.996-16.603-43.152-5.874-6.521-12.76-12.124-19.277-18.227.533-.341 1.575-.977 2.584-1.666 12.912-8.851 22.854-20.167 28.333-34.974 2.806-7.579 5.332-15.331 3.084-23.621-1.124-4.138-3.257-6.915-8.195-6.53-3.708.292-7.473.177-11.197.025-2.822-.119-3.855.911-3.786 3.786.086 3.396.16 6.915-.599 10.188-5.459 23.662-27.525 41.081-51.884 41.232-17.94.115-34.371 4.869-48.698 15.988-2.281 1.771-4.471 3.65-7.306 5.972v-5.783c0-42.5.099-84.997-.126-127.497-.024-5.156-1.309-10.471-2.986-15.377-.816-2.387-3.696-5.373-5.977-5.697-5.754-.813-11.706-.267-17.99-.267zm-169.976 70.76c0 5.394.254 10.188-.074 14.946-.32 4.643 1.759 7.764 5.771 9.023 4.827 1.505 9.921 2.892 14.925 2.986 19.917.365 39.847.086 59.772.271 21.889.197 41.717 14.515 49.214 35.241 2.26 6.255 1.755 7.005-4.91 7.005-38.136.012-76.276.004-114.413.012-1.862.004-3.749-.062-5.594.181-2.756.361-4.766 1.812-4.626 4.856.385 8.363-.213 16.968 1.583 25.028 7.973 35.773 39.92 61.031 76.576 61.24 18.523.103 37.049-.168 55.568.119 6.616.107 13.203 1.481 19.823 1.998 1.239.099 3.441-.829 3.745-1.76 4.487-13.744-2.309-23.608-16.685-24.474-1.702-.107-3.42-.062-5.131-.062-18.99-.004-37.984 0-56.975-.004-22.296-.004-43.39-14.659-51.204-35.568-2.313-6.185-1.448-7.449 5.184-7.449 24.592-.012 49.186-.004 73.783-.004 14.942 0 29.888-.058 44.83.033 3.851.025 5.869-1.341 5.779-5.406-.131-6.021.484-12.12-.271-18.055-4.811-37.771-38.312-67.052-76.514-67.15-17.28-.042-34.56.073-51.835-.05-6.202-.045-12.412-.426-18.592-.956-3.019-.258-5.98-1.205-9.729-2.001z"/></svg>