<?xml version="1.0" standalone="no"?>
<!DOCTYPE svg PUBLIC "-//W3C//DTD SVG 20010904//EN"
 "http://www.w3.org/TR/2001/REC-SVG-20010904/DTD/svg10.dtd">
<svg version="1.0" xmlns="http://www.w3.org/2000/svg"
 width="876.000000pt" height="876.000000pt" viewBox="0 0 876.000000 876.000000"
 preserveAspectRatio="xMidYMid meet">
<metadata>
Created by potrace 1.11, written by Peter Selinger 2001-2013
</metadata>
<g transform="translate(0.000000,876.000000) scale(0.100000,-0.100000)"
fill="#000000" stroke="none">
<path d="M4138 7925 c-3 -3 -95 -14 -168 -19 -40 -3 -85 -13 -117 -26 -18 -8
-23 -5 -32 18 -5 16 -10 20 -10 10 -1 -17 -53 -50 -131 -82 -44 -18 -59 -25
-145 -62 -22 -9 -45 -23 -53 -30 -7 -7 -19 -11 -27 -7 -9 3 -31 -7 -50 -21
-19 -15 -40 -24 -46 -21 -5 4 -20 -4 -33 -18 -13 -14 -37 -28 -54 -31 -17 -4
-33 -14 -36 -22 -4 -11 -13 -13 -28 -9 -17 4 -19 4 -9 -3 11 -8 9 -12 -9 -22
-13 -7 -43 -30 -67 -53 -24 -22 -46 -37 -50 -34 -3 4 -18 -11 -34 -32 -35 -50
-54 -62 -46 -32 4 15 -17 -1 -62 -48 -37 -39 -70 -71 -73 -71 -3 0 -20 -14
-38 -30 -22 -20 -39 -29 -51 -25 -15 5 -19 1 -19 -19 0 -14 -4 -26 -10 -26 -5
0 -17 -15 -26 -32 -9 -18 -23 -37 -30 -41 -8 -4 -14 -13 -14 -18 0 -6 -13 -24
-30 -42 -16 -18 -30 -39 -30 -47 -1 -11 -7 -8 -21 9 -25 30 -35 21 -21 -18 7
-19 7 -31 1 -31 -5 0 -9 -11 -9 -24 0 -13 -6 -39 -14 -57 -7 -19 -12 -39 -9
-45 4 -12 -100 -123 -150 -162 -16 -12 -26 -26 -22 -32 8 -14 35 -13 35 2 0 6
2 9 5 6 13 -13 -9 -39 -28 -34 -15 4 -17 2 -8 -7 17 -17 13 -58 -9 -102 -11
-22 -20 -49 -20 -61 0 -12 -7 -38 -15 -57 -9 -21 -15 -65 -14 -104 0 -51 3
-62 9 -46 6 15 15 21 25 17 17 -7 20 -20 5 -29 -6 -4 -5 -13 3 -26 10 -16 9
-25 -5 -50 -10 -17 -18 -37 -18 -45 0 -8 -4 -22 -9 -32 -25 -49 -41 -95 -41
-117 0 -13 -4 -27 -10 -30 -6 -3 -10 -15 -10 -25 0 -10 -6 -21 -12 -23 -10 -4
-9 -8 2 -16 13 -10 12 -13 -5 -26 -19 -15 -19 -15 4 -32 23 -16 23 -17 5 -30
-17 -13 -17 -16 -4 -26 11 -8 15 -27 14 -64 -1 -37 2 -53 13 -57 10 -4 11 -10
3 -25 -18 -34 -12 -51 17 -51 l27 0 -21 -21 c-18 -19 -19 -24 -7 -47 10 -19
10 -29 2 -39 -8 -10 -6 -18 6 -32 18 -19 36 -135 41 -256 3 -80 12 -115 30
-115 16 0 45 -33 45 -52 0 -23 86 -68 129 -68 20 0 31 4 25 8 -6 4 -16 16 -22
27 -6 11 -12 14 -12 8 0 -7 -5 -13 -11 -13 -6 0 -9 7 -5 15 3 8 1 15 -4 15 -6
0 -10 -4 -10 -10 0 -5 -7 -7 -15 -4 -23 9 -18 23 10 30 14 3 25 10 25 15 0 5
-7 6 -15 3 -11 -5 -13 2 -10 28 2 18 7 76 10 128 10 165 16 210 37 268 11 31
22 69 25 85 3 15 9 27 13 27 4 0 20 28 35 63 15 34 36 82 46 106 11 24 24 78
30 120 17 140 19 156 30 196 6 22 17 55 25 73 8 18 14 39 14 47 0 8 5 15 11
15 5 0 7 5 4 11 -4 6 2 19 14 30 12 11 21 26 21 35 0 8 7 17 15 20 8 4 15 12
15 20 0 8 7 14 15 14 8 0 15 7 15 15 0 9 7 18 15 21 8 4 15 14 15 24 0 13 11
19 40 24 30 5 40 11 38 23 -2 11 6 17 27 20 41 5 95 31 102 49 4 11 8 12 19 3
12 -9 20 -7 39 11 21 20 32 22 104 19 64 -3 81 -1 81 10 0 11 3 11 15 1 8 -6
19 -9 24 -6 5 4 22 -5 36 -18 23 -22 29 -23 41 -11 8 7 14 20 14 27 0 7 8 3
18 -10 13 -17 38 -27 91 -38 40 -8 87 -24 106 -34 41 -23 75 -22 93 2 7 10 18
16 23 13 5 -4 15 0 23 8 12 11 11 16 -8 27 -11 8 -29 13 -39 11 -16 -2 -16 0
-5 18 16 26 26 26 58 1 14 -11 35 -20 48 -20 12 0 22 -4 22 -8 0 -5 11 -14 25
-20 28 -13 36 -48 8 -38 -17 7 -33 -9 -33 -32 0 -9 7 -11 21 -7 20 7 21 5 16
-24 -8 -37 10 -42 38 -11 10 11 23 20 29 19 6 0 6 -3 -1 -6 -7 -2 -13 -13 -13
-23 0 -16 4 -17 35 -7 39 12 47 27 13 27 -17 0 -19 3 -10 12 7 7 12 22 12 34
0 13 5 26 10 29 6 3 10 1 10 -4 0 -6 7 -11 17 -11 9 0 14 -3 10 -6 -6 -6 23
-44 35 -44 5 0 8 8 8 18 0 9 4 13 8 7 10 -14 83 -16 99 -3 20 16 151 12 269
-7 18 -3 37 -12 44 -20 8 -9 27 -13 58 -11 26 2 47 5 47 6 0 1 29 3 65 4 36 1
55 0 42 -2 -34 -5 -25 -38 10 -34 17 1 35 -7 54 -26 42 -41 78 -85 86 -102 5
-10 7 -8 7 9 1 24 1 24 17 5 11 -13 14 -14 11 -3 -3 8 3 20 13 27 22 13 88 -5
173 -48 71 -36 75 -37 70 -6 -4 19 0 24 24 29 16 3 32 1 38 -6 6 -7 19 -13 31
-14 24 -3 84 -55 84 -73 0 -7 8 -10 20 -7 10 3 20 1 22 -3 2 -4 27 -19 57 -34
41 -19 58 -23 68 -15 10 9 24 0 62 -37 27 -27 51 -58 53 -69 2 -15 11 -20 35
-19 17 0 30 -4 27 -8 -3 -4 2 -8 10 -8 11 0 16 10 16 33 0 19 3 36 6 40 13 12
44 -19 44 -44 0 -14 3 -29 6 -32 9 -9 12 -61 18 -292 3 -110 10 -227 15 -259
6 -33 8 -62 6 -64 -3 -3 -1 -10 4 -16 13 -17 26 -210 26 -406 l0 -175 44 -3
c47 -3 77 12 52 27 -7 5 -10 14 -6 20 4 7 1 18 -5 26 -10 12 -9 15 5 15 10 0
24 -8 31 -17 13 -17 13 -17 14 2 0 11 -4 36 -9 55 -18 70 -22 120 -9 118 7 -2
15 17 20 47 5 28 13 60 20 72 8 17 8 26 -1 36 -9 11 -8 17 2 26 8 6 16 8 19 6
8 -8 20 79 21 157 2 52 6 68 18 71 22 6 20 38 -4 64 -23 25 -16 43 8 23 12
-10 15 -9 15 5 0 10 8 23 17 30 15 11 15 15 3 30 -12 15 -12 18 1 26 18 9 24
96 8 115 -6 8 -4 14 6 18 10 4 13 11 8 18 -15 24 -15 299 0 408 5 33 4 37 -2
15 -8 -29 -9 -29 -11 -5 -1 14 -3 72 -5 130 -2 58 -8 117 -13 132 -6 14 -14
55 -17 90 -9 92 -26 170 -40 191 -7 10 -11 27 -8 38 3 10 0 19 -6 19 -6 0 -11
5 -11 11 0 39 -101 207 -142 237 -19 14 -15 36 5 26 7 -3 5 0 -4 8 -9 7 -22
31 -29 53 -12 36 -124 164 -155 176 -26 10 -105 74 -105 84 0 7 -11 17 -24 23
-13 6 -39 23 -57 39 -19 15 -55 39 -81 53 -33 17 -46 29 -43 40 6 19 -3 32
-37 49 -16 8 -28 18 -28 23 0 4 -7 8 -15 8 -8 0 -15 5 -15 11 0 6 -9 8 -20 4
-11 -4 -20 -2 -20 4 0 6 -7 8 -15 5 -10 -4 -15 0 -15 12 0 20 -57 74 -77 74
-7 0 -13 5 -13 10 0 6 -9 10 -19 10 -11 0 -23 5 -26 11 -4 6 -13 8 -21 5 -8
-3 -17 1 -20 8 -3 8 -28 20 -56 26 -27 7 -52 19 -55 26 -3 8 -15 14 -28 14
-12 0 -63 11 -111 25 -145 41 -193 53 -274 69 -14 3 -53 11 -86 19 -34 8 -76
12 -94 9 -23 -3 -31 -1 -26 7 4 6 1 11 -9 11 -10 0 -13 -5 -9 -12 5 -8 -3 -9
-32 -3 -42 9 -160 16 -166 10z m175 -1348 c22 -15 31 -16 42 -7 8 6 20 8 27 4
27 -17 48 -39 48 -51 0 -13 11 -17 40 -14 8 1 2 -6 -13 -14 -26 -15 -30 -15
-56 5 -16 11 -36 18 -43 15 -8 -3 -21 1 -28 10 -7 9 -28 15 -51 15 -22 0 -39
5 -39 10 0 6 6 10 13 11 10 0 10 2 0 6 -7 2 -13 11 -13 19 0 8 -5 14 -11 14
-5 0 -8 4 -4 10 7 11 44 -3 88 -33z m177 -47 c0 -5 -7 -7 -15 -4 -8 4 -15 8
-15 10 0 2 7 4 15 4 8 0 15 -4 15 -10z m395 -80 c3 -5 1 -10 -4 -10 -6 0 -11
5 -11 10 0 6 2 10 4 10 3 0 8 -4 11 -10z m148 -52 c33 -31 34 -38 3 -38 -15 0
-26 7 -29 19 -3 13 -17 22 -42 27 -23 4 -32 9 -25 14 23 14 65 4 93 -22z m-48
-30 c25 -11 29 -28 8 -35 -12 -4 -43 23 -43 38 0 12 4 11 35 -3z m140 -7 c3
-5 1 -12 -4 -15 -5 -3 -11 1 -15 9 -6 16 9 21 19 6z m59 -28 c-10 -41 -18 -46
-45 -24 -20 17 -21 20 -6 21 9 0 17 7 17 15 0 8 9 15 20 15 17 0 19 -4 14 -27z
m-124 8 c0 -5 -6 -14 -14 -20 -11 -9 -15 -7 -19 9 -4 15 0 20 14 20 10 0 19
-4 19 -9z m-2750 -561 c0 -5 -5 -10 -11 -10 -5 0 -7 5 -4 10 3 6 8 10 11 10 2
0 4 -4 4 -10z"/>
<path d="M3495 6500 c-3 -5 -1 -10 4 -10 6 0 11 5 11 10 0 6 -2 10 -4 10 -3 0
-8 -4 -11 -10z"/>
<path d="M3883 6465 c-3 -9 -3 -18 0 -22 10 -10 37 6 37 22 0 20 -29 20 -37 0z"/>
<path d="M4090 6376 c0 -8 9 -16 19 -19 13 -3 18 -1 14 8 -7 19 -33 27 -33 11z"/>
<path d="M6172 6270 c0 -14 2 -19 5 -12 2 6 2 18 0 25 -3 6 -5 1 -5 -13z"/>
<path d="M4990 6237 c0 -14 39 -41 48 -33 5 6 -32 46 -43 46 -3 0 -5 -6 -5
-13z"/>
<path d="M5265 6231 c-3 -5 -1 -12 5 -16 5 -3 10 1 10 9 0 18 -6 21 -15 7z"/>
<path d="M5248 6193 c6 -2 18 -2 25 0 6 3 1 5 -13 5 -14 0 -19 -2 -12 -5z"/>
<path d="M5290 6180 c0 -5 7 -10 15 -10 8 0 15 5 15 10 0 6 -7 10 -15 10 -8 0
-15 -4 -15 -10z"/>
<path d="M2965 5598 c-11 -6 -34 -25 -51 -42 -17 -17 -47 -44 -67 -61 -20 -16
-37 -35 -37 -42 0 -7 -6 -10 -14 -7 -10 4 -16 -6 -21 -35 -4 -22 -13 -45 -21
-52 -15 -12 -19 -39 -6 -39 4 0 17 7 29 15 12 8 50 24 85 35 35 11 69 24 76
28 7 5 40 5 75 1 34 -4 64 -4 67 1 6 9 27 13 50 11 9 -2 5 -6 -10 -13 l-25
-11 35 -9 c19 -5 42 -11 50 -14 8 -3 44 -6 80 -7 53 -2 70 -6 90 -25 13 -12
27 -22 32 -22 4 0 8 -9 8 -20 0 -11 5 -20 11 -20 5 0 7 5 3 11 -5 9 4 10 32 5
40 -8 71 -26 43 -26 -12 0 -12 -2 1 -10 12 -8 12 -10 -5 -10 -18 -1 -18 -2 3
-10 12 -5 22 -18 22 -28 0 -14 9 -21 29 -25 27 -6 29 -8 20 -34 -21 -64 -20
-63 -62 -63 -57 0 -40 -10 25 -15 30 -2 94 -11 144 -20 49 -9 105 -13 125 -10
26 5 39 2 49 -9 7 -9 19 -16 27 -16 8 0 12 -4 8 -10 -7 -11 -68 -4 -95 10 -24
13 -63 13 -55 0 3 -5 15 -10 26 -10 10 0 19 -5 19 -10 0 -6 -17 -8 -42 -5 -24
2 -35 2 -25 -1 31 -10 18 -24 -23 -24 -22 0 -40 -4 -40 -10 0 -5 -6 -10 -13
-10 -7 0 -21 -15 -30 -32 -12 -26 -16 -28 -16 -13 -1 11 -10 26 -21 33 -11 7
-20 19 -20 26 0 8 -5 18 -12 22 -7 4 -8 3 -4 -4 13 -22 -151 -18 -175 4 -12
11 -32 14 -70 10 -30 -2 -54 -5 -54 -6 0 -1 -23 -3 -52 -6 -28 -3 -80 -16
-114 -29 -35 -14 -69 -25 -76 -25 -10 0 -11 -5 -4 -19 8 -15 5 -24 -15 -46
-31 -33 -18 -48 33 -41 21 3 38 -1 47 -10 9 -9 17 -10 21 -4 4 6 11 8 16 4 5
-3 17 0 25 7 13 11 15 10 12 -6 -2 -17 2 -19 29 -17 27 3 31 0 27 -16 -9 -31
36 -52 126 -59 68 -5 83 -3 99 11 41 37 279 44 372 11 55 -20 59 -19 59 10 0
29 14 33 30 8 8 -13 13 -14 16 -5 3 6 13 12 22 12 15 -1 15 -2 1 -13 -8 -7
-18 -20 -22 -29 -3 -10 -11 -18 -17 -18 -5 0 -10 -15 -10 -32 3 -174 4 -188
17 -188 17 0 26 -39 13 -55 -7 -8 -10 -15 -6 -15 17 0 98 100 113 140 18 49
52 101 90 138 26 25 31 52 9 52 -19 0 -26 57 -10 71 11 9 11 16 2 33 -17 33
-32 37 -45 13 -7 -12 -12 -16 -13 -9 0 7 5 23 11 34 9 16 7 26 -9 47 -23 32
-21 114 3 141 20 22 19 59 -2 82 -15 17 -15 18 7 18 15 0 20 4 17 15 -4 8 -2
17 4 20 16 10 1 22 -36 29 -20 4 -39 14 -42 22 -3 9 -12 12 -24 9 -14 -5 -19
-1 -19 12 0 15 -7 19 -32 18 -31 0 -33 2 -33 35 0 23 -4 34 -12 33 -7 -2 -13
3 -13 10 -1 14 -36 41 -67 51 -13 4 -26 18 -29 31 -5 19 -36 41 -51 37 -4 -1
-85 26 -158 51 -54 19 -82 24 -124 20 -43 -5 -55 -3 -63 11 -7 12 -24 16 -73
16 -35 0 -67 5 -71 11 -11 19 -127 -10 -146 -36 -4 -6 -8 -2 -8 8 0 16 -2 16
-25 1 -13 -9 -30 -14 -37 -11 -8 4 -4 8 10 13 13 3 21 11 19 17 -5 16 -20 18
-42 5z m52 -94 c-3 -3 -12 -4 -19 -1 -8 3 -5 6 6 6 11 1 17 -2 13 -5z m870
-540 c-3 -3 -12 -4 -19 -1 -8 3 -5 6 6 6 11 1 17 -2 13 -5z m-192 -24 c-27
-12 -35 -12 -35 0 0 6 12 10 28 9 24 0 25 -1 7 -9z m10 -20 c-3 -5 -11 -10
-16 -10 -6 0 -7 5 -4 10 3 6 11 10 16 10 6 0 7 -4 4 -10z m-480 -70 l34 -71
-37 7 c-43 8 -66 26 -87 67 -17 34 -11 51 15 44 11 -3 21 1 24 9 3 8 8 14 11
14 2 0 20 -32 40 -70z m756 54 c20 -24 21 -74 2 -67 -11 4 -14 0 -11 -18 2
-19 -4 -27 -26 -37 -20 -8 -33 -9 -40 -2 -7 7 -3 10 12 10 27 0 28 11 3 27
-17 11 -18 17 -8 48 7 24 13 31 19 23 6 -9 10 -7 14 10 7 26 17 28 35 6z m-77
-271 c-24 -18 -46 -16 -42 3 2 8 7 15 11 14 4 0 15 7 25 16 16 17 17 17 21 -1
2 -10 -5 -25 -15 -32z"/>
<path d="M3962 4880 c0 -14 2 -19 5 -12 2 6 2 18 0 25 -3 6 -5 1 -5 -13z"/>
<path d="M5046 5462 c-3 -6 -20 -13 -36 -17 -17 -4 -30 -11 -30 -16 0 -12 -46
-30 -85 -33 -16 -2 -37 -4 -46 -5 -9 0 -19 -10 -22 -20 -3 -14 -11 -18 -24
-15 -11 3 -26 0 -34 -8 -24 -22 -58 -38 -79 -38 -11 0 -23 -7 -27 -16 -4 -12
-14 -14 -34 -10 -16 3 -29 1 -29 -4 0 -6 -13 -24 -30 -42 -16 -17 -30 -37 -30
-44 0 -8 -8 -14 -18 -14 -10 0 -37 -12 -59 -27 -30 -19 -43 -35 -46 -57 -7
-39 -4 -65 10 -91 14 -26 24 -97 13 -90 -4 3 -6 -3 -3 -13 2 -10 -1 -30 -7
-46 -9 -25 -14 -28 -40 -22 -16 3 -37 3 -47 -1 -15 -6 -15 -7 3 -15 15 -7 13
-7 -8 -5 -49 7 -30 -9 27 -23 49 -12 55 -16 49 -34 -9 -30 -9 -30 -59 -17 -32
8 -51 8 -65 1 -28 -15 -25 -22 5 -14 21 5 24 3 18 -12 -4 -11 -3 -15 4 -11 21
13 78 -60 113 -143 32 -76 61 -129 111 -202 11 -15 19 -31 19 -35 0 -5 9 -14
20 -21 12 -7 20 -8 20 -2 0 5 -4 10 -10 10 -5 0 -10 7 -10 15 0 8 -4 15 -8 15
-23 0 -32 52 -21 116 6 35 14 64 18 64 4 0 6 13 3 29 -2 16 1 32 7 35 21 14
11 58 -19 86 -16 15 -30 36 -30 47 0 15 2 16 10 3 8 -13 10 -13 10 2 0 28 27
47 65 44 19 -2 35 1 35 5 0 5 5 9 10 9 6 0 8 -10 4 -24 -5 -23 -3 -24 48 -29
76 -7 160 -28 179 -43 8 -8 22 -14 31 -14 8 0 25 -9 38 -20 12 -11 26 -17 31
-14 8 5 58 13 112 18 15 2 36 11 47 21 11 10 20 13 20 7 0 -8 20 -12 54 -12
30 0 57 -4 60 -8 6 -10 43 -8 86 5 19 6 56 14 81 18 26 3 54 14 64 24 14 17
15 24 3 63 -19 65 -82 121 -153 137 -31 7 -59 11 -61 8 -3 -2 19 -18 48 -34
79 -45 141 -103 109 -103 -14 0 -91 53 -91 62 0 5 -4 7 -9 4 -5 -3 -25 1 -45
9 -20 8 -36 12 -36 9 0 -4 -6 -2 -12 3 -28 22 -139 36 -221 28 -45 -4 -93 -8
-107 -9 -21 -2 -27 -10 -37 -57 -7 -30 -11 -59 -8 -66 5 -15 -33 -24 -42 -10
-13 21 -10 61 5 80 8 9 11 17 7 17 -4 0 0 9 10 20 10 11 15 23 12 27 -4 3 -7
1 -7 -5 0 -7 -4 -12 -10 -12 -5 0 -7 6 -4 14 10 27 -18 28 -45 2 -19 -18 -33
-24 -49 -19 -21 5 -21 6 -5 18 10 8 14 17 10 22 -22 21 336 34 533 19 40 -3
59 -2 50 4 -9 5 -66 12 -128 16 -62 4 -112 11 -112 15 0 13 -48 11 -70 -3 -17
-11 -22 -10 -29 0 -4 7 -25 14 -46 16 -44 4 -57 21 -26 31 12 3 21 11 21 16 0
6 -4 8 -9 5 -5 -4 -7 4 -3 16 3 13 11 27 19 31 7 4 13 15 13 22 0 8 6 15 14
15 7 0 35 9 61 21 47 21 118 32 109 17 -3 -5 2 -8 10 -8 9 0 16 4 16 10 0 5 6
7 14 4 8 -3 40 -6 72 -8 33 -1 66 -4 74 -6 8 -3 14 1 13 8 -2 7 7 12 22 12 14
0 25 4 25 9 0 5 11 11 25 13 16 3 25 1 25 -7 0 -22 24 -33 55 -27 l30 5 -35
13 c-32 12 -33 13 -9 13 32 1 82 -23 71 -34 -4 -4 4 -4 18 1 14 4 40 8 59 8
19 1 36 7 38 14 3 6 0 12 -6 12 -6 0 -11 7 -11 16 0 8 5 12 10 9 19 -12 10 21
-17 63 -15 23 -33 42 -40 42 -6 0 -19 10 -27 22 -9 12 -16 18 -16 13 0 -5 -6
-1 -13 10 -8 10 -19 15 -24 12 -6 -4 -16 0 -23 8 -10 12 -16 13 -27 4 -10 -9
-21 -8 -47 6 -23 13 -45 16 -74 13 -23 -3 -42 -3 -44 1 -2 3 -23 17 -48 31
-37 20 -63 25 -141 28 -60 3 -99 0 -103 -6z m-60 -501 c-3 -4 -47 -9 -98 -10
-51 0 -133 -4 -183 -7 -49 -4 -87 -4 -84 0 17 18 376 35 365 17z m-406 -31
c-8 -5 -22 -10 -30 -10 -13 0 -13 1 0 10 8 5 22 10 30 10 13 0 13 -1 0 -10z
m-114 -66 c-4 -14 -9 -24 -12 -21 -3 2 -2 17 2 31 3 15 9 25 11 22 3 -3 2 -17
-1 -32z m21 -76 c-3 -7 -5 -2 -5 12 0 14 2 19 5 13 2 -7 2 -19 0 -25z m-37
-68 c4 -22 5 -40 1 -40 -15 0 -31 42 -25 66 8 32 15 25 24 -26z m814 15 c-22
-16 -44 -19 -44 -6 0 11 18 19 44 20 20 1 20 1 0 -14z m-34 -34 c0 -5 -9 -11
-20 -14 -20 -5 -26 3 -13 16 9 10 33 8 33 -2z m-670 -62 c0 -11 -4 -17 -10
-14 -5 3 -10 13 -10 21 0 8 5 14 10 14 6 0 10 -9 10 -21z"/>
<path d="M5420 5161 c0 -12 29 -23 42 -15 6 4 5 10 -3 15 -18 11 -39 11 -39 0z"/>
<path d="M2692 5066 c-26 -17 -47 -35 -48 -41 -5 -65 -25 -85 -85 -85 -21 0
-28 -6 -32 -27 -7 -37 -4 -40 43 -48 l39 -7 3 -84 c2 -47 7 -84 13 -84 6 -1
18 66 27 147 21 183 23 189 52 208 28 19 212 49 235 39 9 -3 81 -8 161 -10 80
-2 164 -6 188 -9 26 -4 42 -2 42 4 0 28 -47 32 -316 30 l-275 -2 -47 -31z"/>
<path d="M3344 5089 c-3 -5 7 -9 23 -9 15 0 39 -3 53 -7 14 -3 22 -2 18 2 -11
12 -88 23 -94 14z"/>
<path d="M3440 5045 c79 -17 123 -19 99 -5 -9 5 -50 12 -90 15 l-74 5 65 -15z"/>
<path d="M3570 5030 c0 -5 5 -10 11 -10 5 0 7 5 4 10 -3 6 -8 10 -11 10 -2 0
-4 -4 -4 -10z"/>
<path d="M2315 5020 c-3 -6 4 -10 18 -10 20 0 23 -4 20 -24 -3 -13 0 -27 6
-30 6 -4 11 -18 11 -32 0 -13 5 -24 10 -24 15 0 12 -21 -6 -41 -23 -26 -7 -45
18 -22 21 18 21 18 16 -9 -3 -17 -1 -25 5 -21 7 4 7 -3 3 -18 -16 -53 -18 -71
-8 -78 8 -5 9 -23 3 -59 -4 -29 -5 -52 -1 -52 11 0 21 30 15 41 -3 5 4 61 15
125 l21 117 -26 21 c-17 14 -28 35 -32 61 -3 22 -10 46 -16 53 -11 14 -63 16
-72 2z"/>
<path d="M3640 5016 c0 -2 11 -6 25 -8 14 -3 25 -1 25 3 0 5 -11 9 -25 9 -14
0 -25 -2 -25 -4z"/>
<path d="M2430 4953 c0 -21 17 -50 24 -42 3 3 7 16 8 29 2 16 -3 25 -14 28
-12 2 -18 -3 -18 -15z"/>
<path d="M5430 4930 c-11 -7 -4 -10 25 -10 99 -1 281 -43 313 -73 21 -19 22
-28 23 -176 0 -88 4 -147 8 -136 l8 20 5 -20 c3 -11 4 14 3 55 -1 41 0 67 2
57 3 -9 8 -15 13 -12 5 3 20 1 34 -5 24 -9 26 -15 26 -65 0 -38 4 -54 11 -50
6 4 17 -2 25 -14 8 -12 21 -21 29 -21 16 0 47 39 39 51 -2 4 0 10 6 14 5 3 10
15 10 25 0 10 4 20 9 22 14 5 18 140 5 145 -7 2 -14 -9 -17 -24 -3 -15 -7 -37
-10 -48 -6 -27 -53 -38 -104 -23 -50 14 -56 28 -14 28 17 0 33 5 36 10 4 6 11
8 16 5 5 -4 9 -2 9 4 0 6 -19 15 -42 21 -24 6 -48 13 -55 15 -7 2 -15 27 -19
55 -4 27 -10 50 -15 50 -5 0 -9 5 -9 11 0 14 -26 36 -60 50 -63 26 -286 54
-310 39z m400 -219 c0 -11 -4 -23 -10 -26 -6 -4 -10 5 -10 19 0 14 5 26 10 26
6 0 10 -9 10 -19z"/>
<path d="M2291 4903 c-15 -13 -23 -35 -29 -78 -9 -76 -3 -217 9 -210 5 4 9 21
9 40 0 19 4 36 9 39 4 3 11 27 14 53 3 26 13 62 21 78 31 60 9 112 -33 78z"/>
<path d="M4168 4813 c6 -2 18 -2 25 0 6 3 1 5 -13 5 -14 0 -19 -2 -12 -5z"/>
<path d="M5069 4619 c22 -9 109 -4 119 6 3 2 -28 4 -69 4 -56 -1 -68 -3 -50
-10z"/>
<path d="M2370 4503 c-23 -9 -70 -64 -76 -90 -9 -35 3 -67 38 -102 17 -17 35
-31 39 -31 6 0 13 42 25 168 7 61 4 66 -26 55z"/>
<path d="M4626 4241 c-7 -11 47 -125 64 -136 19 -12 24 4 8 22 -18 21 -51 82
-54 101 -4 20 -11 25 -18 13z"/>
<path d="M5665 4090 c-20 -3 -30 -11 -29 -23 3 -55 4 -58 27 -55 17 2 21 9 19
28 -1 19 0 21 7 10 14 -21 22 -8 13 21 -6 21 -11 24 -37 19z"/>
<path d="M5720 4085 c0 -8 5 -15 10 -15 6 0 10 7 10 15 0 8 -4 15 -10 15 -5 0
-10 -7 -10 -15z"/>
<path d="M4657 3970 c9 -11 19 -17 21 -15 6 6 -18 35 -29 35 -5 0 -1 -9 8 -20z"/>
<path d="M5600 3970 c0 -5 7 -10 15 -10 8 0 15 5 15 10 0 6 -7 10 -15 10 -8 0
-15 -4 -15 -10z"/>
<path d="M5565 3931 c-3 -5 -1 -12 5 -16 5 -3 10 1 10 9 0 18 -6 21 -15 7z"/>
<path d="M4409 3763 c-6 -7 -20 -13 -31 -13 -10 0 -21 -7 -24 -15 -3 -8 -20
-19 -38 -25 -28 -9 -76 -50 -76 -65 0 -13 -41 -44 -53 -39 -8 3 -18 -6 -25
-20 -10 -22 -16 -24 -48 -19 -28 5 -40 2 -50 -11 -6 -10 -20 -16 -31 -14 -12
2 -19 -4 -21 -20 -3 -19 -6 -21 -18 -11 -11 9 -20 7 -40 -7 -55 -38 -79 -51
-91 -46 -8 2 -13 -5 -13 -21 0 -27 -23 -52 -40 -42 -5 3 -10 19 -10 34 0 34
-9 44 -27 30 -7 -6 -13 -8 -13 -4 0 4 -7 2 -16 -6 -13 -10 -17 -10 -24 1 -7
11 -14 12 -35 2 -14 -7 -35 -12 -46 -12 -12 0 -23 -8 -26 -19 -5 -18 -32 -31
-63 -30 -10 0 -8 3 5 9 11 5 15 9 9 9 -30 2 -83 -31 -95 -58 -7 -16 -17 -27
-21 -25 -4 3 -8 -4 -8 -15 0 -11 -4 -23 -10 -26 -6 -4 -10 7 -10 24 0 26 -4
31 -24 31 -14 0 -31 -7 -40 -15 -8 -8 -17 -15 -21 -15 -11 0 -155 -120 -155
-129 0 -12 -48 -62 -56 -59 -4 2 -12 -5 -18 -15 -8 -13 -8 -20 3 -26 9 -6 10
-14 3 -27 -14 -27 -15 -174 -1 -174 6 0 9 -7 5 -15 -3 -8 -1 -15 5 -15 7 0 10
-19 7 -49 l-3 -49 35 -5 c19 -2 38 0 41 5 3 5 29 10 58 10 28 1 55 6 60 12 5
6 12 35 16 64 4 28 11 52 16 52 5 0 9 8 9 19 0 10 6 23 13 29 7 6 14 25 15 42
5 66 71 90 154 56 22 -10 39 -11 49 -5 7 5 24 9 37 9 12 0 22 5 22 10 0 13 64
3 95 -13 11 -6 25 -12 30 -13 6 0 12 -2 15 -3 3 -2 18 -5 35 -7 16 -3 38 -12
47 -21 9 -8 22 -12 29 -7 20 12 80 15 344 16 280 1 316 0 330 -12 6 -5 28 -10
49 -12 29 -2 40 -8 46 -24 5 -12 14 -25 19 -29 16 -10 13 -61 -5 -79 -8 -9
-18 -32 -21 -51 -5 -34 -23 -50 -23 -21 0 23 -29 27 -49 7 -19 -19 -112 -38
-131 -26 -18 11 -140 16 -140 5 0 -17 -47 -22 -76 -7 -39 19 -151 17 -164 -3
-5 -8 -10 -11 -10 -6 0 5 -6 3 -14 -3 -10 -9 -16 -8 -26 3 -7 10 -22 13 -39
10 -20 -4 -30 -1 -34 10 -6 15 -9 14 -27 -4 -11 -11 -31 -22 -45 -26 -16 -4
-25 -13 -25 -25 0 -10 -5 -19 -10 -19 -6 0 -3 -11 6 -25 9 -14 23 -25 30 -25
18 0 24 -77 9 -112 -6 -16 0 -18 66 -18 77 0 119 -7 119 -20 0 -4 -11 -5 -25
-2 -19 3 -27 -1 -34 -21 -13 -34 -24 -39 -57 -27 -16 6 -50 8 -81 4 -42 -5
-53 -10 -53 -25 0 -10 -4 -21 -10 -24 -6 -4 -10 5 -10 19 0 16 -6 26 -15 26
-8 0 -15 -5 -15 -11 0 -5 -4 -7 -10 -4 -5 3 -10 -1 -10 -10 0 -9 4 -14 9 -11
10 6 25 -43 16 -52 -3 -3 -24 4 -46 16 -31 17 -45 20 -55 11 -7 -6 -17 -8 -23
-5 -13 8 -42 -4 -35 -15 3 -5 -2 -9 -12 -9 -11 0 -15 -6 -11 -20 3 -11 1 -18
-3 -15 -15 9 -27 -27 -29 -85 -1 -30 -7 -59 -12 -65 -7 -7 -8 -1 -4 18 5 17 3
27 -4 27 -6 0 -11 -6 -11 -12 -1 -24 -30 26 -30 51 0 20 -3 22 -12 13 -9 -9
-10 -19 -1 -42 13 -34 11 -37 -12 -14 -15 15 -17 15 -31 -2 -8 -11 -13 -29
-11 -41 4 -24 -10 -33 -49 -33 -16 0 -23 4 -18 11 3 6 1 15 -6 19 -15 9 -60
-11 -60 -27 0 -15 -9 -16 -29 -4 -11 7 -11 15 -3 40 9 25 8 31 -4 31 -7 0 -14
5 -14 10 0 6 5 10 10 10 6 0 10 5 10 10 0 17 -27 11 -36 -7 -4 -10 -6 -22 -5
-26 0 -4 -10 0 -25 9 -22 15 -27 15 -34 3 -7 -11 -10 -10 -16 4 -7 20 -30 23
-37 5 -3 -7 -6 2 -6 20 -1 34 -18 44 -27 15 -3 -10 -10 -26 -15 -35 -7 -15 -5
-18 14 -18 15 0 23 -6 24 -19 2 -22 24 -65 83 -162 45 -75 59 -91 71 -84 3 3
11 -7 17 -20 7 -14 17 -25 23 -25 7 0 9 -10 5 -27 -3 -16 -3 -22 0 -15 9 21
25 13 35 -17 7 -20 15 -28 25 -24 8 3 14 -1 14 -8 0 -7 12 -30 26 -51 18 -26
34 -38 51 -38 13 0 26 -8 30 -18 10 -24 29 -42 47 -42 20 0 39 -36 31 -60 -4
-14 -2 -20 9 -20 9 0 16 5 16 12 0 8 6 6 16 -4 9 -9 14 -24 11 -32 -8 -20 -27
-21 -27 -1 0 8 -4 15 -10 15 -5 0 -10 -18 -10 -40 0 -35 3 -39 23 -37 19 2 22
-3 25 -42 5 -63 -5 -90 -36 -103 -21 -9 -23 -12 -9 -15 9 -3 17 -9 17 -15 0
-5 9 -21 20 -36 13 -15 17 -28 11 -32 -7 -4 -6 -28 3 -70 8 -38 10 -69 5 -74
-14 -16 -10 -72 6 -86 21 -17 19 -27 -6 -33 -15 -4 -19 -2 -15 9 9 22 -50 18
-66 -5 -18 -26 -74 -33 -72 -9 1 14 -6 17 -34 15 -27 -1 -37 2 -37 13 0 10
-12 16 -32 18 -18 2 -33 7 -33 11 0 10 -51 33 -58 26 -3 -3 -20 6 -38 20 -18
14 -40 25 -49 25 -9 0 -19 9 -22 20 -3 11 -14 20 -24 20 -10 0 -23 8 -28 18
-6 9 -11 13 -11 8 0 -5 -17 8 -37 30 -21 22 -51 46 -67 54 -16 8 -31 21 -34
28 -3 8 -16 26 -29 40 -14 15 -22 34 -20 44 3 10 1 16 -4 12 -5 -3 -9 5 -9 18
0 13 -7 32 -15 42 -11 15 -15 16 -15 5 0 -8 5 -20 11 -26 6 -6 9 -17 7 -24 -6
-17 -38 47 -38 75 0 16 -2 18 -9 7 -7 -10 -13 -4 -26 25 -9 22 -22 49 -28 62
-6 13 -10 35 -9 49 1 14 -3 32 -9 41 -10 15 -10 15 -5 0 3 -10 2 -18 -3 -18
-5 0 -11 10 -15 23 -8 30 -7 39 2 33 5 -3 6 9 4 27 -4 27 -6 29 -13 12 -4 -11
-8 -18 -9 -15 -18 63 -14 173 9 236 21 56 28 119 13 128 -18 11 -95 -37 -162
-101 -69 -66 -119 -99 -225 -150 -27 -13 -57 -27 -65 -32 -9 -5 -31 -12 -49
-16 -19 -4 -50 -24 -71 -47 -29 -29 -55 -44 -105 -58 -36 -10 -88 -35 -116
-54 -27 -20 -58 -36 -70 -36 -41 0 -128 -31 -168 -60 -22 -16 -53 -32 -68 -36
-32 -7 -94 -39 -138 -70 -36 -25 -142 -69 -205 -84 -25 -7 -92 -29 -150 -51
-96 -35 -205 -63 -227 -57 -4 1 -33 -5 -63 -14 -30 -9 -93 -26 -140 -39 -47
-12 -91 -26 -97 -32 -7 -5 -13 -7 -13 -3 0 14 -159 -69 -195 -103 -22 -20 -53
-43 -68 -49 -16 -7 -107 -64 -203 -128 l-174 -115 0 -370 0 -369 4380 0 4380
0 0 388 0 389 -22 20 c-28 25 -116 84 -228 154 -114 70 -167 114 -186 152 -21
41 -62 77 -87 77 -11 0 -38 17 -61 38 -22 21 -72 50 -111 66 -38 15 -99 41
-135 57 -52 23 -72 27 -100 21 -32 -8 -112 4 -165 23 -64 23 -226 91 -267 112
-15 8 -47 20 -70 28 -24 7 -70 23 -102 34 -33 12 -69 21 -80 21 -12 0 -32 7
-46 15 -74 44 -177 86 -275 114 -60 17 -122 40 -137 51 -15 11 -31 20 -35 20
-7 0 -36 11 -188 75 -16 7 -55 24 -85 39 -32 14 -91 30 -140 36 -96 13 -102
16 -185 94 -33 31 -68 59 -78 62 -9 3 -61 -2 -114 -11 -54 -9 -118 -14 -143
-11 l-45 6 30 -15 c28 -13 55 -26 188 -83 44 -20 47 -23 47 -60 0 -89 -150
-455 -254 -620 -14 -23 -26 -44 -26 -47 0 -4 -17 -32 -39 -63 -47 -70 -157
-162 -316 -266 -66 -43 -131 -86 -145 -96 -34 -23 -141 -80 -355 -190 -99 -51
-208 -107 -242 -125 -34 -18 -70 -35 -80 -38 -10 -4 -36 -13 -58 -22 -58 -23
-268 -65 -324 -65 -26 0 -72 7 -102 17 -48 15 -51 17 -29 24 14 4 21 7 15 8
-5 1 13 14 40 30 28 16 68 50 89 75 26 30 48 46 63 46 13 0 23 5 23 10 0 6 7
10 15 10 8 0 15 7 15 15 0 8 6 15 14 15 22 0 36 24 41 74 2 25 8 54 13 64 5 9
7 22 5 29 -2 6 1 14 6 18 6 3 11 14 11 23 0 28 47 111 92 164 24 28 47 61 51
74 5 13 12 24 17 24 4 0 13 13 19 30 5 17 16 30 23 30 7 0 27 26 43 58 17 31
41 61 53 67 12 5 20 16 17 22 -2 7 0 13 6 13 16 0 62 39 76 63 7 12 12 16 13
10 0 -25 18 -13 18 12 0 15 15 40 43 68 88 89 204 219 219 246 9 15 30 46 48
69 52 65 138 245 173 360 6 17 14 32 19 32 6 0 10 12 11 28 0 15 9 41 20 57
10 17 23 40 28 52 5 11 14 24 20 27 6 4 13 29 17 56 4 27 9 48 13 46 4 -3 12
26 19 62 12 61 32 107 32 72 0 -7 3 -10 6 -7 4 4 1 13 -6 22 -9 11 -9 15 -1
15 6 0 16 11 21 24 5 14 25 47 44 74 20 27 36 53 36 56 0 4 11 22 24 39 52 70
96 171 67 152 -5 -3 -12 3 -15 12 -2 10 -2 0 0 -22 5 -38 4 -39 -10 -21 -9 11
-16 28 -16 39 0 10 -4 16 -9 12 -6 -3 -6 -18 -1 -38 9 -30 8 -31 -6 -12 -10
13 -13 31 -10 50 3 17 3 25 -2 19 -4 -6 -26 -12 -49 -12 -43 -2 -43 -2 -43 33
l0 35 -49 0 c-31 0 -53 5 -61 15 -9 10 -9 15 -1 15 6 0 11 11 11 25 0 14 -5
25 -10 25 -6 0 -16 -11 -22 -25 -6 -14 -15 -25 -20 -25 -4 0 -8 -8 -8 -18 0
-21 -29 -37 -83 -47 -30 -6 -38 -3 -49 14 -16 25 -30 28 -21 4 5 -15 3 -14
-10 2 -9 11 -17 26 -17 33 0 6 -4 12 -8 12 -5 0 -23 23 -41 50 -20 30 -40 50
-51 50 -10 0 -25 7 -34 15 -8 8 -19 15 -25 15 -6 0 -11 5 -11 11 0 5 -4 7 -10
4 -10 -6 -55 19 -83 47 -22 22 -41 24 -33 3 7 -20 1 -19 -51 6 -41 20 -45 20
-56 4 -12 -15 -14 -15 -30 3 -18 20 -48 20 -73 1 -6 -5 -14 -5 -18 -1 -4 4
-12 7 -18 7 -6 0 -16 9 -22 20 -6 11 -12 22 -13 24 -2 2 -9 -1 -16 -7 -16 -13
-27 -6 -27 16 0 9 -8 24 -17 35 -17 20 -17 20 7 14 22 -5 23 -5 7 7 -15 12
-11 16 42 40 48 21 65 36 89 74 16 26 32 61 36 77 4 17 15 38 23 47 16 18 11
48 -8 48 -6 0 -9 -6 -6 -14 5 -11 -1 -12 -30 -3 -19 6 -38 17 -41 25 -13 34
-53 60 -106 69 -44 8 -58 7 -67 -4z m-704 -333 c-3 -5 -12 -10 -18 -10 -7 0
-6 4 3 10 19 12 23 12 15 0z m735 -20 c0 -5 -4 -10 -9 -10 -6 0 -13 5 -16 10
-3 6 1 10 9 10 9 0 16 -4 16 -10z m-594 -54 c1 -17 -2 -23 -12 -19 -17 6 -18
30 -1 36 6 3 12 6 12 6 0 1 1 -10 1 -23z m29 14 c3 -5 1 -10 -4 -10 -6 0 -11
5 -11 10 0 6 2 10 4 10 3 0 8 -4 11 -10z m453 -18 c2 -7 -2 -10 -12 -6 -9 3
-16 11 -16 16 0 13 23 5 28 -10z m-426 -113 c-2 -24 -1 -41 3 -37 11 11 44
-24 38 -39 -3 -8 0 -19 8 -24 11 -6 8 -9 -8 -9 -14 0 -23 -6 -23 -15 0 -18
-17 -20 -22 -3 -3 7 -22 13 -46 13 -23 0 -42 3 -42 7 0 5 -11 6 -25 2 -17 -4
-25 -2 -25 7 0 10 -3 10 -12 1 -17 -17 -32 -15 -83 9 -48 22 -61 43 -21 33 16
-4 25 -1 29 10 8 21 37 20 52 0 15 -21 51 -11 58 17 3 12 10 18 16 15 5 -4 14
1 19 9 11 21 64 56 77 51 6 -1 8 -23 7 -47z m422 -59 c3 -11 6 -9 11 8 9 27
25 29 25 2 0 -11 -4 -20 -9 -20 -5 0 -8 -8 -7 -17 1 -14 -5 -17 -28 -15 -18 2
-33 -3 -43 -15 -9 -12 -16 -14 -19 -7 -6 14 -103 -18 -116 -38 -6 -11 -8 -11
-8 0 0 9 -5 10 -19 2 -43 -22 -75 25 -39 57 11 10 28 18 37 19 48 3 50 4 44
22 -6 16 -5 16 13 0 14 -12 24 -14 37 -7 9 6 21 8 26 5 4 -3 18 5 31 19 18 20
25 22 41 12 10 -6 20 -18 23 -27z m186 -10 c0 -5 -5 -10 -11 -10 -5 0 -7 5 -4
10 3 6 8 10 11 10 2 0 4 -4 4 -10z m-887 -27 c-7 -2 -19 -2 -25 0 -7 3 -2 5
12 5 14 0 19 -2 13 -5z m1181 -518 c3 -8 3 -21 0 -29 -4 -10 2 -16 18 -18 13
-2 23 -10 24 -18 0 -8 4 -23 9 -33 4 -9 4 -34 1 -55 l-7 -37 17 32 c9 18 20
30 25 27 5 -3 8 -50 6 -105 -3 -89 -6 -101 -25 -115 -12 -8 -29 -28 -37 -45
-9 -16 -24 -29 -34 -29 -10 0 -25 -7 -32 -16 -19 -23 -52 -34 -62 -20 -5 7
-11 6 -18 -6 -14 -25 -49 -23 -49 2 0 14 -7 20 -21 20 -15 0 -19 4 -15 16 8
21 -2 56 -14 49 -4 -3 -6 -14 -3 -25 4 -14 0 -20 -11 -20 -24 0 -33 50 -11 63
16 9 14 11 -16 21 -31 10 -34 15 -37 52 -3 35 0 42 19 47 14 4 20 11 16 21 -4
11 4 16 33 21 44 7 100 50 100 76 0 12 7 19 20 19 17 0 20 7 20 39 0 23 -5 41
-12 44 -10 3 -10 7 1 20 17 22 87 23 95 2z m-626 -136 c-2 -6 -8 -10 -13 -10
-5 0 -11 4 -13 10 -2 6 4 11 13 11 9 0 15 -5 13 -11z m-411 -211 c-3 -8 -6 -5
-6 6 -1 11 2 17 5 13 3 -3 4 -12 1 -19z m873 -158 c0 -5 -4 -10 -10 -10 -5 0
-10 5 -10 10 0 6 5 10 10 10 6 0 10 -4 10 -10z m-1423 -32 c-3 -7 -5 -2 -5 12
0 14 2 19 5 13 2 -7 2 -19 0 -25z m258 -348 c-27 -12 -35 -12 -35 0 0 6 12 10
28 9 24 0 25 -1 7 -9z m285 -626 c0 -4 -8 -13 -17 -20 -17 -13 -17 -13 0 -14
9 0 17 -7 17 -15 0 -11 -11 -15 -40 -15 -36 0 -40 -2 -40 -25 0 -42 -20 -28
-21 15 -1 22 -2 46 -3 53 -1 7 11 12 26 12 15 1 30 4 34 8 9 9 44 9 44 1z"/>
<path d="M3609 3760 c-7 -20 4 -88 12 -75 4 6 4 28 0 50 -4 22 -9 33 -12 25z"/>
<path d="M3792 3689 c-33 -32 -39 -45 -23 -51 5 -1 11 -14 13 -28 3 -27 1 -28
-64 -17 -49 8 -48 -3 2 -27 28 -13 39 -24 35 -34 -4 -12 -3 -13 10 -2 8 7 23
9 32 5 16 -6 15 -8 -7 -25 l-25 -20 34 0 c25 0 32 3 27 15 -3 8 -1 15 4 15 6
0 10 -4 10 -10 0 -5 5 -10 12 -10 9 0 9 3 0 12 -15 15 -16 48 -2 48 6 0 10 6
10 13 0 20 37 51 44 38 10 -15 50 6 75 40 16 21 18 30 8 36 -39 25 -65 33
-111 33 -45 0 -57 -4 -84 -31z"/>
<path d="M3968 3563 c6 -2 18 -2 25 0 6 3 1 5 -13 5 -14 0 -19 -2 -12 -5z"/>
<path d="M5288 3198 c9 -9 15 -9 24 0 9 9 7 12 -12 12 -19 0 -21 -3 -12 -12z"/>
<path d="M5318 3163 c7 -3 16 -2 19 1 4 3 -2 6 -13 5 -11 0 -14 -3 -6 -6z"/>
<path d="M3597 3016 c-4 -10 0 -12 14 -9 22 6 26 23 5 23 -8 0 -16 -6 -19 -14z"/>
<path d="M5627 3023 c-2 -5 -4 -24 -5 -43 l-1 -35 14 30 c8 17 14 36 15 43 0
13 -16 17 -23 5z"/>
<path d="M3818 2993 c7 -3 16 -2 19 1 4 3 -2 6 -13 5 -11 0 -14 -3 -6 -6z"/>
<path d="M3360 1364 c0 -9 5 -14 12 -12 18 6 21 28 4 28 -9 0 -16 -7 -16 -16z"/>
<path d="M3385 1340 c-10 -17 16 -41 36 -35 13 4 19 1 19 -8 0 -17 21 -27 56
-27 51 0 14 45 -44 53 -12 2 -28 9 -34 15 -15 15 -25 15 -33 2z"/>
<path d="M3575 1250 c-3 -5 1 -10 9 -10 9 0 16 5 16 10 0 6 -4 10 -9 10 -6 0
-13 -4 -16 -10z"/>
<path d="M3520 1183 c0 -13 5 -23 10 -23 13 0 13 11 0 30 -8 12 -10 11 -10 -7z"/>
<path d="M3310 1176 c0 -7 7 -19 15 -26 19 -16 41 1 32 24 -8 20 -47 21 -47 2z"/>
<path d="M5245 1111 c-3 -5 -1 -12 5 -16 5 -3 10 1 10 9 0 18 -6 21 -15 7z"/>
</g>
</svg>
